<?xml version="1.0" encoding="utf-8"?>
<!-- Generator: Adobe Illustrator 24.1.0, SVG Export Plug-In . SVG Version: 6.00 Build 0)  -->
<svg version="1.1" id="bdeff33d-6092-433c-9c79-adf60dbe76dd"
	 xmlns="http://www.w3.org/2000/svg" xmlns:xlink="http://www.w3.org/1999/xlink" x="0px" y="0px" viewBox="0 0 315.3 362.6"
	 style="enable-background:new 0 0 315.3 362.6;" xml:space="preserve">
<style type="text/css">
	.st0{fill:#090B0D;}
</style>
<path class="st0" d="M167.1,0h62c0,0-3.4,79.7,86.1,85.2v61.6c0,0-47.8,3-86.1-26.3l0.7,127.1c0,63.5-51.4,114.9-114.9,114.9
	S0,311.1,0,247.7c0-63.5,51.4-114.9,114.9-114.9H131v61.6v1.3c-27.5-8.6-56.8,6.8-65.4,34.3c-8.6,27.5,6.8,56.8,34.3,65.4
	c27.5,8.6,56.8-6.8,65.4-34.3c1.6-5,2.4-10.3,2.4-15.5L167.1,0z"/>
</svg>
