<?xml version="1.0" encoding="utf-8"?>
<!-- Generator: Adobe Illustrator 24.1.0, SVG Export Plug-In . SVG Version: 6.00 Build 0)  -->
<svg version="1.1" id="Layer_1" xmlns="http://www.w3.org/2000/svg" xmlns:xlink="http://www.w3.org/1999/xlink" x="0px" y="0px"
	 viewBox="0 0 22.9 17" style="enable-background:new 0 0 22.9 17;" xml:space="preserve">
<style type="text/css">
	.st0{fill:#090B0D;}
</style>
<g>
	<path class="st0" d="M22.8,3.8c0-0.2-0.3-1.8-1-2.5c-0.9-1-1.9-1.1-2.4-1.1h-0.1C16.2,0,11.6,0,11.5,0c0,0-4.7,0-7.8,0.2H3.6
		c-0.5,0-1.5,0.1-2.4,1.1c-0.7,0.8-1,2.4-1,2.6C0.2,4,0,5.8,0,7.7v1.7c0,1.9,0.2,3.7,0.2,3.8c0,0.2,0.3,1.8,1,2.5
		c0.8,0.9,1.8,1,2.4,1.1c0.1,0,0.2,0,0.3,0C5.7,17,11.2,17,11.4,17l0,0c0,0,4.7,0,7.8-0.2h0.1c0.5-0.1,1.5-0.2,2.4-1.1
		c0.7-0.8,1-2.4,1-2.6c0-0.1,0.2-1.9,0.2-3.8V7.6C23,5.8,22.8,3.9,22.8,3.8z M15.4,8.7l-6,3.2c-0.1,0-0.1,0.1-0.2,0.1
		C9.1,12,9,12,9,11.9c-0.1-0.1-0.2-0.2-0.2-0.4V5c0-0.2,0.1-0.3,0.2-0.4s0.3-0.1,0.5,0l6,3.2c0.2,0.1,0.3,0.2,0.3,0.4
		S15.6,8.6,15.4,8.7z"/>
</g>
</svg>
