<svg width="100%" height="0" class="hidden">
<defs>
  <symbol xmlns="http://www.w3.org/2000/svg" viewBox="0 0 24 24" id="youtube">
    <path d="M23.3 7.3c0-.2-.3-1.8-1-2.5-.9-1-1.9-1.1-2.4-1.1h-.1c-3.1-.2-7.7-.2-7.8-.2 0 0-4.7 0-7.8.2h-.1c-.5 0-1.5.1-2.4 1.1-.7.8-1 2.4-1 2.6 0 .1-.2 1.9-.2 3.8v1.7c0 1.9.2 3.7.2 3.8 0 .2.3 1.8 1 2.5.8.9 1.8 1 2.4 1.1h.3c1.8.2 7.3.2 7.5.2 0 0 4.7 0 7.8-.2h.1c.5-.1 1.5-.2 2.4-1.1.7-.8 1-2.4 1-2.6 0-.1.2-1.9.2-3.8v-1.7c.1-1.8-.1-3.7-.1-3.8zm-7.4 4.9l-6 3.2c-.1 0-.1.1-.2.1s-.2 0-.2-.1c-.1-.1-.2-.2-.2-.4V8.5c0-.2.1-.3.2-.4s.3-.1.5 0l6 3.2c.2.1.3.2.3.4s-.2.4-.4.5z"></path>
  </symbol>
  <symbol xmlns="http://www.w3.org/2000/svg" fill-rule="evenodd" clip-rule="evenodd" stroke-linejoin="round" stroke-miterlimit="2" viewBox="0 0 512 512" id="facebook">
    <path d="M374.244 285.825l14.105-91.961h-88.233v-59.677c0-25.159 12.325-49.682 51.845-49.682h40.116V6.214S355.67 0 320.864 0c-72.67 0-120.165 44.042-120.165 123.775v70.089h-80.777v91.961h80.777v222.31A320.565 320.565 0 00250.408 512c16.911 0 33.511-1.324 49.708-3.865v-222.31h74.128z" fill-rule="nonzero"></path>
  </symbol>
  <symbol xmlns="http://www.w3.org/2000/svg" fill-rule="evenodd" clip-rule="evenodd" stroke-linejoin="round" stroke-miterlimit="2" viewBox="0 0 512 512" id="twitter">
    <path d="M161.014 464.013c193.208 0 298.885-160.071 298.885-298.885 0-4.546 0-9.072-.307-13.578A213.737 213.737 0 00512 97.176a209.705 209.705 0 01-60.334 16.527 105.426 105.426 0 0046.182-58.102 210.548 210.548 0 01-66.703 25.498 105.184 105.184 0 00-76.593-33.112c-57.682 0-105.145 47.464-105.145 105.144 0 8.002.914 15.979 2.722 23.773-84.418-4.231-163.18-44.161-216.494-109.752-27.724 47.726-13.379 109.576 32.522 140.226A104.258 104.258 0 0120.48 194.23v1.331c.014 49.814 35.447 93.111 84.275 102.974a104.898 104.898 0 01-47.431 1.802c13.727 42.685 53.311 72.108 98.14 72.95a210.83 210.83 0 01-130.458 45.056A213.688 213.688 0 010 416.827a297.42 297.42 0 00161.014 47.104" fill-rule="nonzero"></path>
  </symbol>
  <symbol xmlns="http://www.w3.org/2000/svg" fill-rule="evenodd" clip-rule="evenodd" stroke-linejoin="round" stroke-miterlimit="2" viewBox="0 0 600 600" id="instagram">
    <g fill-rule="nonzero">
      <path d="M300 44c-69.526 0-78.244.295-105.549 1.54-27.248 1.244-45.858 5.571-62.142 11.9-16.834 6.542-31.11 15.296-45.342 29.528-14.232 14.231-22.986 28.508-29.528 45.342-6.329 16.283-10.656 34.893-11.9 62.141C44.295 221.756 44 230.474 44 300c0 69.524.294 78.242 1.54 105.547 1.243 27.248 5.57 45.858 11.9 62.141 6.541 16.834 15.295 31.11 29.527 45.344 14.231 14.231 28.508 22.985 45.342 29.527 16.284 6.328 34.894 10.656 62.142 11.899 27.305 1.245 36.023 1.54 105.549 1.54 69.524 0 78.242-.295 105.547-1.54 27.248-1.243 45.858-5.571 62.141-11.899 16.834-6.542 31.11-15.296 45.344-29.527 14.231-14.233 22.985-28.51 29.527-45.344 6.328-16.283 10.656-34.893 11.899-62.14 1.245-27.306 1.54-36.024 1.54-105.548 0-69.526-.295-78.244-1.54-105.549-1.243-27.248-5.571-45.858-11.899-62.141-6.542-16.834-15.296-31.11-29.527-45.342-14.233-14.232-28.51-22.986-45.344-29.528-16.283-6.329-34.893-10.656-62.14-11.9C378.241 44.296 369.523 44 300 44zm0 46.127c68.354 0 76.45.26 103.445 1.492 24.96 1.139 38.514 5.31 47.535 8.814 11.95 4.644 20.477 10.192 29.435 19.15 8.959 8.958 14.506 17.487 19.15 29.435 3.506 9.02 7.676 22.576 8.815 47.535 1.231 26.995 1.492 35.092 1.492 103.447 0 68.354-.26 76.45-1.492 103.445-1.139 24.96-5.31 38.514-8.815 47.535-4.644 11.95-10.191 20.477-19.15 29.435-8.958 8.959-17.486 14.506-29.435 19.15-9.02 3.506-22.576 7.676-47.535 8.814-26.99 1.232-35.086 1.493-103.445 1.493-68.36 0-76.455-.26-103.447-1.493-24.96-1.138-38.514-5.308-47.535-8.814-11.95-4.644-20.477-10.191-29.436-19.15-8.958-8.958-14.506-17.486-19.149-29.435-3.506-9.02-7.676-22.576-8.815-47.535-1.232-26.994-1.492-35.091-1.492-103.445 0-68.355.26-76.452 1.492-103.447 1.139-24.96 5.31-38.514 8.815-47.535 4.643-11.948 10.191-20.477 19.15-29.435 8.958-8.958 17.486-14.506 29.435-19.15 9.02-3.505 22.576-7.675 47.535-8.814 26.995-1.232 35.092-1.492 103.447-1.492z"></path>
      <path d="M300 385.332c-47.13 0-85.334-38.205-85.334-85.332 0-47.13 38.205-85.334 85.334-85.334 47.127 0 85.332 38.205 85.332 85.334 0 47.127-38.205 85.332-85.332 85.332zm0-216.792c-72.604 0-131.46 58.856-131.46 131.46 0 72.602 58.856 131.458 131.46 131.458 72.602 0 131.458-58.856 131.458-131.458 0-72.604-58.856-131.46-131.458-131.46zm167.372-5.194c0 16.967-13.754 30.72-30.72 30.72s-30.72-13.753-30.72-30.72c0-16.966 13.754-30.719 30.72-30.719s30.72 13.753 30.72 30.72z" fill="#030404"></path>
    </g>
  </symbol>
  <symbol xmlns="http://www.w3.org/2000/svg" viewBox="0 0 750 750" id="tiktok">
    <path d="M384.53 193.71h62s-3.44 79.65 86.11 85.24v61.57s-47.79 3-86.11-26.26l.67 127.12a114.91 114.91 0 11-114.92-114.91h16.12v62.95a52.24 52.24 0 1036.69 49.88z"></path>
  </symbol>
  
</svg>